<svg id="Capa_1" enable-background="new 0 0 499.999 499.999" height="512" viewBox="0 0 499.999 499.999" width="512" xmlns="http://www.w3.org/2000/svg" fill="white"><path d="m359.374 0h-218.75c-25.848 0-46.874 21.027-46.874 46.875v406.249c0 25.848 21.027 46.875 46.875 46.875h218.75c25.848 0 46.875-21.027 46.875-46.875v-406.249c-.001-25.848-21.027-46.875-46.876-46.875zm15.625 453.124c0 8.621-7.004 15.625-15.625 15.625h-218.75c-8.621 0-15.625-7.004-15.625-15.625v-406.249c0-8.621 7.004-15.625 15.625-15.625h218.75c8.621 0 15.625 7.004 15.625 15.625z"/><path d="m250 218.75c-51.697 0-93.75 42.053-93.75 93.75s42.053 93.75 93.75 93.75 93.75-42.053 93.75-93.75-42.054-93.75-93.75-93.75zm0 156.249c-34.47 0-62.5-28.03-62.5-62.5s28.03-62.5 62.5-62.5 62.5 28.03 62.5 62.5c-.001 34.47-28.031 62.5-62.5 62.5z"/><path d="m250 187.5c25.848 0 46.875-21.027 46.875-46.875s-21.027-46.875-46.875-46.875-46.875 21.027-46.875 46.875 21.026 46.875 46.875 46.875zm0-62.5c8.621 0 15.625 7.004 15.625 15.625s-7.004 15.625-15.625 15.625-15.625-7.004-15.625-15.625 7.003-15.625 15.625-15.625z"/></svg>